<?xml version='1.0' encoding='UTF-8'?>
<svg x="0px" y="0px" viewBox="0 0 32 32" version="1.1" xmlns="http://www.w3.org/2000/svg" xmlns:xlink="http://www.w3.org/1999/xlink" enable-background="new 0 0 32 32" xml:space="preserve" id="More">
  <g opacity="0.75" class="st0">
    <path d="M6,9c0-1.1,0.4-2.2,1-3H5C4.4,6,4,5.6,4,5s0.4-1,1-1h6h13V3c0-0.6-0.4-1-1-1H5C3.3,2,2,3.3,2,5v18   c0,1.7,1.3,3,3,3h1V9z" fill="#FFB115" opacity="0.75" class="Yellow" />
  </g>
  <path d="M11,6C9.3,6,8,7.3,8,9v18c0,1.7,1.3,3,3,3h18c0.6,0,1-0.4,1-1V10H11c-0.6,0-1-0.4-1-1s0.4-1,1-1h19V7  c0-0.6-0.4-1-1-1H11z" fill="#FFB115" class="Yellow" />
</svg>